<svg width="40" height="40" viewBox="0 0 40 40" fill="none" xmlns="http://www.w3.org/2000/svg">
<g id="Group">
<path id="Vector" fill-rule="evenodd" clip-rule="evenodd" d="M27.1768 12.4536L26.7075 10.5005L27.8897 9.72815L28.2026 11.1404L28.395 8.80182L29.6824 9.81115L29.7516 11.9824L32.3791 12.4027L31.8752 13.7829L30.8826 13.9167L31.9444 14.3545L31.3865 15.6663L28.8643 14.5057L27.1768 12.4536Z" fill="#2E4062"/>
<path id="Vector_2" fill-rule="evenodd" clip-rule="evenodd" d="M11.7075 26.2359C15.8494 30.1889 21.521 26.3698 25.3486 23.4422C22.9828 26.252 20.0425 28.1368 16.2841 28.6923C22.4955 30.0042 29.5597 24.2173 28.4633 16.057L27.9234 15.5684C25.9577 16.4759 24.1996 18.5803 23.1725 21.0367C23.5033 18.9337 24.7035 16.8802 27.0873 15.2658L25.9217 14.0035C18.6319 15.0637 17.6047 23.3913 12.1062 25.2587C14.9247 25.2078 17.1341 23.7113 18.9614 21.204C17.4497 24.4863 15.1531 26.4046 11.7075 26.2359Z" fill="#2E4062"/>
<path id="Vector_3" fill-rule="evenodd" clip-rule="evenodd" d="M26.0803 13.0962C26.0111 13.0628 25.9405 13.0628 25.8713 13.0628C25.7494 13.0628 25.6442 13.1136 25.5584 13.198C25.4892 13.2823 25.4546 13.4001 25.4546 13.5005C25.4546 13.6009 25.5072 13.7187 25.593 13.787L28.7077 16.495C28.795 16.5793 28.9168 16.6128 29.0206 16.5954C29.1424 16.5954 29.2476 16.5459 29.3168 16.4602C29.4041 16.3759 29.4387 16.2581 29.4387 16.1577C29.4387 16.0907 29.4041 16.0238 29.3694 15.9555C29.3348 15.9381 29.3002 15.9221 29.2656 15.8886L26.1689 13.1792C26.1329 13.1645 26.0983 13.1297 26.0803 13.0962Z" fill="#F2F3F5"/>
<path id="Vector_4" d="M26.3235 13.0132L29.4383 15.7213C29.5601 15.8217 29.6473 15.9904 29.6473 16.1416C29.6639 16.3103 29.5947 16.479 29.4909 16.5954C29.369 16.7293 29.196 16.7976 29.0382 16.815C28.8638 16.815 28.7087 16.7641 28.5689 16.6463L25.4542 13.9369C25.3144 13.8365 25.2451 13.6678 25.2451 13.5166C25.2271 13.3479 25.2798 13.1806 25.4016 13.0628C25.5234 12.9276 25.6798 12.8606 25.8542 12.8606C26.0287 12.8446 26.1851 12.8941 26.3235 13.0132ZM29.2984 15.8726L26.1837 13.1645C26.0965 13.0976 25.9747 13.0467 25.8709 13.0641C25.749 13.0641 25.6438 13.115 25.558 13.1993C25.4888 13.2836 25.4542 13.4014 25.4542 13.5018C25.4542 13.6022 25.5068 13.72 25.5926 13.7883L28.7073 16.4964C28.7945 16.5807 28.9164 16.6142 29.0202 16.5968C29.142 16.5968 29.2472 16.5472 29.3164 16.4616C29.4036 16.3772 29.4383 16.2594 29.4383 16.159C29.4203 16.0573 29.3856 15.9395 29.2984 15.8726Z" fill="#2E4062"/>
<path id="Vector_5" fill-rule="evenodd" clip-rule="evenodd" d="M26.9503 12.3205L30.065 15.0286C30.2907 15.2307 30.3087 15.5506 30.1176 15.7688C29.9086 15.9884 29.5611 16.0044 29.3521 15.8023L26.2374 13.1103C26.0117 12.9082 25.9937 12.5883 26.1848 12.3701C26.3938 12.1532 26.7427 12.1358 26.9503 12.3205Z" fill="#F2F3F5"/>
<path id="Vector_6" d="M27.0203 12.2516L30.135 14.9597C30.2748 15.0601 30.344 15.2288 30.3606 15.38C30.3606 15.5487 30.308 15.7174 30.1862 15.8352C30.0644 15.969 29.908 16.0373 29.7335 16.0373C29.5771 16.0547 29.4041 16.0038 29.2643 15.886L26.1675 13.1766C26.0291 13.0762 25.9585 12.9076 25.9419 12.7563C25.9419 12.5876 25.9945 12.4203 26.1163 12.3012C26.2381 12.1673 26.3946 12.099 26.569 12.083C26.724 12.083 26.8985 12.1338 27.0203 12.2516ZM29.9952 15.111L26.8805 12.4029C26.7933 12.3186 26.6894 12.2851 26.5676 12.3012C26.4624 12.3012 26.3586 12.352 26.2714 12.4364C26.1842 12.5207 26.1495 12.6385 26.1675 12.7402C26.1675 12.8406 26.2201 12.9584 26.306 13.0254L29.4207 15.7334C29.5079 15.8004 29.6117 15.8512 29.7335 15.8338C29.8388 15.8338 29.9426 15.783 30.0298 15.6986C30.117 15.6143 30.1516 15.4965 30.1336 15.3961C30.135 15.297 30.0824 15.1792 29.9952 15.111Z" fill="#2E4062"/>
<path id="Vector_7" fill-rule="evenodd" clip-rule="evenodd" d="M38.7468 2.62759C39.1302 2.96492 39.1648 3.55258 38.816 3.92338L29.8733 13.5468C29.5258 13.9176 28.9333 13.9511 28.5333 13.6137C28.1498 13.2777 28.1152 12.6887 28.464 12.3193L37.4068 2.69586C37.7556 2.3264 38.3647 2.29159 38.7468 2.62759Z" fill="#2E4062"/>
<path id="Vector_8" fill-rule="evenodd" clip-rule="evenodd" d="M30.1505 3.18416C30.2377 3.25109 30.3415 3.33543 30.4468 3.4037C22.8078 -1.45972 12.5247 0.47601 7.32224 7.79457C2.03256 15.1975 3.98175 25.3607 11.6553 30.4571C19.3275 35.5561 29.821 33.6713 35.0927 26.2684C37.7369 22.5334 38.573 18.1252 37.7728 14.0194C38.9219 18.7972 38.0511 23.9966 34.9543 28.354C29.0901 36.599 17.4517 38.6846 8.92534 33.0153C0.417 27.3447 -1.73985 16.0716 4.12296 7.8441C9.96777 -0.399488 21.6256 -2.46909 30.1505 3.18416Z" fill="#2E4062"/>
<path id="Vector_9" fill-rule="evenodd" clip-rule="evenodd" d="M39.5833 16.715C39.8616 17.976 40 19.2879 40 20.6347C40 31.3361 31.0404 40 19.9917 40C9.35973 40 0.660345 31.9907 0 21.8796C1.87859 30.6788 9.95224 37.3079 19.6096 37.3079C30.6763 37.3079 39.6359 28.6266 39.6359 17.9426C39.6345 17.5222 39.6179 17.1179 39.5833 16.715Z" fill="#FFC700"/>
<path id="Vector_10" fill-rule="evenodd" clip-rule="evenodd" d="M15.0159 10.6377C14.7888 12.9094 13.4668 14.003 11.3267 14.2038C13.2758 14.3725 14.7722 15.3818 15.0159 17.7552C15.1723 16.09 15.9032 14.7594 18.2524 14.1704C16.4417 13.9696 15.1723 12.6068 15.0159 10.6377Z" fill="#FFC700"/>
<path id="Vector_11" fill-rule="evenodd" clip-rule="evenodd" d="M18.3886 4.88593C18.1976 6.66898 17.1704 7.54445 15.4829 7.69571C17.014 7.83092 18.1796 8.62071 18.3886 10.5055C18.5104 9.17758 19.0849 8.13345 20.9288 7.66225C19.5016 7.51098 18.4924 6.43338 18.3886 4.88593Z" fill="#FFC700"/>
<path id="Vector_12" fill-rule="evenodd" clip-rule="evenodd" d="M20.1297 6.63066C20.0079 7.85952 19.295 8.46459 18.1294 8.56498C19.1732 8.64932 19.9913 9.20485 20.1297 10.4993C20.199 9.57431 20.6004 8.86751 21.8698 8.54892C20.8953 8.43112 20.199 7.70692 20.1297 6.63066Z" fill="#FFC700"/>
</g>
</svg>
