<svg width="30" height="36" viewBox="0 0 30 36" fill="none" xmlns="http://www.w3.org/2000/svg">
<g id="Ellipse 3">
<mask id="path-1-inside-1_486_19387" fill="white">
<path d="M21.8425 0.0177C18.1509 1.00688 14.6902 2.71351 11.6581 5.04013C8.62595 7.36675 6.08179 10.2678 4.17084 13.5777C2.25989 16.8875 1.01958 20.5414 0.520722 24.3306C0.0218648 28.1198 0.274231 31.9701 1.26341 35.6618L29.375 28.1293L21.8425 0.0177Z"/>
</mask>
<path d="M21.8425 0.0177C18.1509 1.00688 14.6902 2.71351 11.6581 5.04013C8.62595 7.36675 6.08179 10.2678 4.17084 13.5777C2.25989 16.8875 1.01958 20.5414 0.520722 24.3306C0.0218648 28.1198 0.274231 31.9701 1.26341 35.6618L29.375 28.1293L21.8425 0.0177Z" stroke="#F2F3F5" stroke-width="2" mask="url(#path-1-inside-1_486_19387)"/>
</g>
</svg>
